HIERARCHY
ROOT mixamorig:Hips
{
	OFFSET -0.000008 104.274872 1.554316
	CHANNELS 6 Xposition Yposition Zposition Xrotation Yrotation Zrotation
	JOINT mixamorig:Spine
	{
		OFFSET -0.000005 10.181595 0.131519
		CHANNELS 6 Xposition Yposition Zposition Xrotation Yrotation Zrotation
		JOINT mixamorig:Spine1
		{
			OFFSET -0.000000 9.893959 -1.470707
			CHANNELS 6 Xposition Yposition Zposition Xrotation Yrotation Zrotation
			JOINT mixamorig:Spine2
			{
				OFFSET -0.000000 9.220757 -1.370641
				CHANNELS 6 Xposition Yposition Zposition Xrotation Yrotation Zrotation
				JOINT mixamorig:Neck
				{
					OFFSET 0.000001 16.740417 -2.049036
					CHANNELS 6 Xposition Yposition Zposition Xrotation Yrotation Zrotation
					JOINT mixamorig:Head
					{
						OFFSET 0.000000 9.617874 1.685006
						CHANNELS 6 Xposition Yposition Zposition Xrotation Yrotation Zrotation
						JOINT mixamorig:HeadTop_End
						{
							OFFSET 0.000002 22.037354 7.501101
							CHANNELS 6 Xposition Yposition Zposition Xrotation Yrotation Zrotation
							End Site
							{
								OFFSET 0.000168 2310.654297 -282.823242
							}
						}
					}
				}
				JOINT mixamorig:RightShoulder
				{
					OFFSET -4.569970 11.014908 -2.160885
					CHANNELS 6 Xposition Yposition Zposition Xrotation Yrotation Zrotation
					JOINT mixamorig:RightArm
					{
						OFFSET -10.592851 -0.524811 -2.232101
						CHANNELS 6 Xposition Yposition Zposition Xrotation Yrotation Zrotation
						JOINT mixamorig:RightForeArm
						{
							OFFSET -27.841511 0.000031 -0.000004
							CHANNELS 6 Xposition Yposition Zposition Xrotation Yrotation Zrotation
							JOINT mixamorig:RightHand
							{
								OFFSET -28.328831 -0.000015 0.000015
								CHANNELS 6 Xposition Yposition Zposition Xrotation Yrotation Zrotation
								JOINT mixamorig:RightHandThumb1
								{
									OFFSET -2.464806 -1.573990 2.681852
									CHANNELS 6 Xposition Yposition Zposition Xrotation Yrotation Zrotation
									JOINT mixamorig:RightHandThumb2
									{
										OFFSET -3.215179 -1.872803 1.924282
										CHANNELS 6 Xposition Yposition Zposition Xrotation Yrotation Zrotation
										JOINT mixamorig:RightHandThumb3
										{
											OFFSET -2.654831 -1.527969 1.512609
											CHANNELS 6 Xposition Yposition Zposition Xrotation Yrotation Zrotation
											JOINT mixamorig:RightHandThumb4
											{
												OFFSET -2.018814 -1.152008 1.108052
												CHANNELS 6 Xposition Yposition Zposition Xrotation Yrotation Zrotation
												End Site
												{
													OFFSET -188.809540 -114.533607 132.431396
												}
											}
										}
									}
								}
								JOINT mixamorig:RightHandIndex1
								{
									OFFSET -9.108284 -0.517868 2.259835
									CHANNELS 6 Xposition Yposition Zposition Xrotation Yrotation Zrotation
									JOINT mixamorig:RightHandIndex2
									{
										OFFSET -3.699989 0.000000 0.001215
										CHANNELS 6 Xposition Yposition Zposition Xrotation Yrotation Zrotation
										JOINT mixamorig:RightHandIndex3
										{
											OFFSET -2.850006 0.000031 -0.000522
											CHANNELS 6 Xposition Yposition Zposition Xrotation Yrotation Zrotation
											JOINT mixamorig:RightHandIndex4
											{
												OFFSET -2.772186 -0.000015 -0.000020
												CHANNELS 6 Xposition Yposition Zposition Xrotation Yrotation Zrotation
												End Site
												{
													OFFSET -277.218445 0.000000 -0.050231
												}
											}
										}
									}
								}
								JOINT mixamorig:RightHandMiddle1
								{
									OFFSET -9.532516 -0.000031 -0.000023
									CHANNELS 6 Xposition Yposition Zposition Xrotation Yrotation Zrotation
									JOINT mixamorig:RightHandMiddle2
									{
										OFFSET -3.700005 -0.000015 0.003713
										CHANNELS 6 Xposition Yposition Zposition Xrotation Yrotation Zrotation
										JOINT mixamorig:RightHandMiddle3
										{
											OFFSET -2.949974 0.000015 -0.002054
											CHANNELS 6 Xposition Yposition Zposition Xrotation Yrotation Zrotation
											JOINT mixamorig:RightHandMiddle4
											{
												OFFSET -2.946640 0.000000 -0.000156
												CHANNELS 6 Xposition Yposition Zposition Xrotation Yrotation Zrotation
												End Site
												{
													OFFSET -294.664337 0.000000 -0.113670
												}
											}
										}
									}
								}
								JOINT mixamorig:RightHandRing1
								{
									OFFSET -9.103600 -0.043076 -1.865134
									CHANNELS 6 Xposition Yposition Zposition Xrotation Yrotation Zrotation
									JOINT mixamorig:RightHandRing2
									{
										OFFSET -3.379288 0.000000 -0.001055
										CHANNELS 6 Xposition Yposition Zposition Xrotation Yrotation Zrotation
										JOINT mixamorig:RightHandRing3
										{
											OFFSET -2.889687 -0.000015 0.000379
											CHANNELS 6 Xposition Yposition Zposition Xrotation Yrotation Zrotation
											JOINT mixamorig:RightHandRing4
											{
												OFFSET -2.638809 -0.000015 0.000941
												CHANNELS 6 Xposition Yposition Zposition Xrotation Yrotation Zrotation
												End Site
												{
													OFFSET -263.880371 0.000000 0.516020
												}
											}
										}
									}
								}
								JOINT mixamorig:RightHandPinky1
								{
									OFFSET -8.076683 -0.486710 -3.806280
									CHANNELS 6 Xposition Yposition Zposition Xrotation Yrotation Zrotation
									JOINT mixamorig:RightHandPinky2
									{
										OFFSET -3.600014 -0.000015 -0.003747
										CHANNELS 6 Xposition Yposition Zposition Xrotation Yrotation Zrotation
										JOINT mixamorig:RightHandPinky3
										{
											OFFSET -2.099983 0.000000 -0.005739
											CHANNELS 6 Xposition Yposition Zposition Xrotation Yrotation Zrotation
											JOINT mixamorig:RightHandPinky4
											{
												OFFSET -2.115768 -0.000031 -0.003680
												CHANNELS 6 Xposition Yposition Zposition Xrotation Yrotation Zrotation
												End Site
												{
													OFFSET -211.577087 0.000000 -0.350686
												}
											}
										}
									}
								}
							}
						}
					}
				}
				JOINT mixamorig:LeftShoulder
				{
					OFFSET 4.570447 11.014725 -2.160855
					CHANNELS 6 Xposition Yposition Zposition Xrotation Yrotation Zrotation
					JOINT mixamorig:LeftArm
					{
						OFFSET 10.592371 -0.524597 -2.232119
						CHANNELS 6 Xposition Yposition Zposition Xrotation Yrotation Zrotation
						JOINT mixamorig:LeftForeArm
						{
							OFFSET 27.841532 -0.000031 0.000026
							CHANNELS 6 Xposition Yposition Zposition Xrotation Yrotation Zrotation
							JOINT mixamorig:LeftHand
							{
								OFFSET 28.328846 -0.000061 0.000022
								CHANNELS 6 Xposition Yposition Zposition Xrotation Yrotation Zrotation
								JOINT mixamorig:LeftHandThumb1
								{
									OFFSET 2.466141 -1.576172 2.681732
									CHANNELS 6 Xposition Yposition Zposition Xrotation Yrotation Zrotation
									JOINT mixamorig:LeftHandThumb2
									{
										OFFSET 3.217812 -1.872070 1.916482
										CHANNELS 6 Xposition Yposition Zposition Xrotation Yrotation Zrotation
										JOINT mixamorig:LeftHandThumb3
										{
											OFFSET 2.656029 -1.528778 1.514513
											CHANNELS 6 Xposition Yposition Zposition Xrotation Yrotation Zrotation
											JOINT mixamorig:LeftHandThumb4
											{
												OFFSET 2.020889 -1.154053 1.115139
												CHANNELS 6 Xposition Yposition Zposition Xrotation Yrotation Zrotation
												End Site
												{
													OFFSET 190.885437 -115.081749 130.048782
												}
											}
										}
									}
								}
								JOINT mixamorig:LeftHandIndex1
								{
									OFFSET 9.109314 -0.518021 2.259871
									CHANNELS 6 Xposition Yposition Zposition Xrotation Yrotation Zrotation
									JOINT mixamorig:LeftHandIndex2
									{
										OFFSET 3.699989 0.000000 -0.000322
										CHANNELS 6 Xposition Yposition Zposition Xrotation Yrotation Zrotation
										JOINT mixamorig:LeftHandIndex3
										{
											OFFSET 2.850006 0.000000 0.000352
											CHANNELS 6 Xposition Yposition Zposition Xrotation Yrotation Zrotation
											JOINT mixamorig:LeftHandIndex4
											{
												OFFSET 2.774864 -0.000031 -0.000027
												CHANNELS 6 Xposition Yposition Zposition Xrotation Yrotation Zrotation
												End Site
												{
													OFFSET 277.486267 0.000000 -0.009857
												}
											}
										}
									}
								}
								JOINT mixamorig:LeftHandMiddle1
								{
									OFFSET 9.533394 0.000061 0.000044
									CHANNELS 6 Xposition Yposition Zposition Xrotation Yrotation Zrotation
									JOINT mixamorig:LeftHandMiddle2
									{
										OFFSET 3.699989 -0.000015 -0.000231
										CHANNELS 6 Xposition Yposition Zposition Xrotation Yrotation Zrotation
										JOINT mixamorig:LeftHandMiddle3
										{
											OFFSET 2.949997 -0.000015 -0.000059
											CHANNELS 6 Xposition Yposition Zposition Xrotation Yrotation Zrotation
											JOINT mixamorig:LeftHandMiddle4
											{
												OFFSET 2.952896 0.000031 0.000063
												CHANNELS 6 Xposition Yposition Zposition Xrotation Yrotation Zrotation
												End Site
												{
													OFFSET 295.289337 0.000000 0.022810
												}
											}
										}
									}
								}
								JOINT mixamorig:LeftHandRing1
								{
									OFFSET 9.104523 -0.042999 -1.865074
									CHANNELS 6 Xposition Yposition Zposition Xrotation Yrotation Zrotation
									JOINT mixamorig:LeftHandRing2
									{
										OFFSET 3.150009 -0.000031 0.000043
										CHANNELS 6 Xposition Yposition Zposition Xrotation Yrotation Zrotation
										JOINT mixamorig:LeftHandRing3
										{
											OFFSET 2.949982 -0.000015 0.000040
											CHANNELS 6 Xposition Yposition Zposition Xrotation Yrotation Zrotation
											JOINT mixamorig:LeftHandRing4
											{
												OFFSET 2.644348 0.000000 0.000057
												CHANNELS 6 Xposition Yposition Zposition Xrotation Yrotation Zrotation
												End Site
												{
													OFFSET 264.434631 0.000000 0.012105
												}
											}
										}
									}
								}
								JOINT mixamorig:LeftHandPinky1
								{
									OFFSET 8.077789 -0.486847 -3.806259
									CHANNELS 6 Xposition Yposition Zposition Xrotation Yrotation Zrotation
									JOINT mixamorig:LeftHandPinky2
									{
										OFFSET 3.599953 0.000031 0.014727
										CHANNELS 6 Xposition Yposition Zposition Xrotation Yrotation Zrotation
										JOINT mixamorig:LeftHandPinky3
										{
											OFFSET 2.100021 0.000015 0.007705
											CHANNELS 6 Xposition Yposition Zposition Xrotation Yrotation Zrotation
											JOINT mixamorig:LeftHandPinky4
											{
												OFFSET 2.125504 0.000031 0.007517
												CHANNELS 6 Xposition Yposition Zposition Xrotation Yrotation Zrotation
												End Site
												{
													OFFSET 212.550781 0.000000 0.625752
												}
											}
										}
									}
								}
							}
						}
					}
				}
			}
		}
	}
	JOINT mixamorig:RightUpLeg
	{
		OFFSET -8.207787 -6.751648 -1.599560
		CHANNELS 6 Xposition Yposition Zposition Xrotation Yrotation Zrotation
		JOINT mixamorig:RightLeg
		{
			OFFSET -0.000002 -44.370117 0.345942
			CHANNELS 6 Xposition Yposition Zposition Xrotation Yrotation Zrotation
			JOINT mixamorig:RightFoot
			{
				OFFSET 0.000003 -44.423679 -3.043532
				CHANNELS 6 Xposition Yposition Zposition Xrotation Yrotation Zrotation
				JOINT mixamorig:RightToeBase
				{
					OFFSET -0.000002 -8.728671 10.710558
					CHANNELS 6 Xposition Yposition Zposition Xrotation Yrotation Zrotation
					JOINT mixamorig:RightToe_End
					{
						OFFSET -0.000001 -0.000679 9.278119
						CHANNELS 6 Xposition Yposition Zposition Xrotation Yrotation Zrotation
						End Site
						{
							OFFSET 0.000000 -0.067690 927.812134
						}
					}
				}
			}
		}
	}
	JOINT mixamorig:LeftUpLeg
	{
		OFFSET 8.207793 -6.751686 -1.599556
		CHANNELS 6 Xposition Yposition Zposition Xrotation Yrotation Zrotation
		JOINT mixamorig:LeftLeg
		{
			OFFSET -0.000004 -44.370014 0.346954
			CHANNELS 6 Xposition Yposition Zposition Xrotation Yrotation Zrotation
			JOINT mixamorig:LeftFoot
			{
				OFFSET -0.000001 -44.423672 -3.044401
				CHANNELS 6 Xposition Yposition Zposition Xrotation Yrotation Zrotation
				JOINT mixamorig:LeftToeBase
				{
					OFFSET -0.000002 -8.728669 10.710558
					CHANNELS 6 Xposition Yposition Zposition Xrotation Yrotation Zrotation
					JOINT mixamorig:LeftToe_End
					{
						OFFSET -0.000003 -0.000679 9.278133
						CHANNELS 6 Xposition Yposition Zposition Xrotation Yrotation Zrotation
						End Site
						{
							OFFSET 0.000000 -0.068021 927.813477
						}
					}
				}
			}
		}
	}
}
MOTION
Frames: 3
Frame Time: 0.033333
0.000006 104.270477 1.554256 0.000010 0.000003 -0.000113 -0.000005 10.181587 0.131522 0.000001 -0.000003 0.000084 -0.000000 9.893967 -1.470711 0.000001 0.000000 -0.000000 -0.000000 9.220802 -1.370642 0.000000 -0.000000 -0.000000 0.000001 16.740433 -2.049030 0.000000 -0.000000 -0.000000 0.000000 9.617859 1.685014 0.000000 0.000000 0.000000 0.000002 22.037384 7.501101 0.000000 -0.000000 0.000000 -4.569968 11.014880 -2.160881 0.000008 0.000001 -0.000038 -10.592869 -0.524774 -2.231884 76.988226 32.394850 -26.015231 -27.841513 0.000008 0.000572 -45.622242 108.901328 60.959718 -28.328815 0.000022 0.000027 -0.000319 -0.000045 0.000008 -2.464385 -1.573866 2.682341 -39.382355 -153.287203 7.625868 -3.215245 -1.872518 1.924612 148.293201 33.701308 28.287030 -2.654950 -1.527869 1.513061 147.332030 27.524378 -30.246718 -2.018833 -1.151998 1.108066 -0.000002 0.000002 0.000002 -9.108368 -0.517558 2.260134 101.544846 15.107426 -18.508441 -3.700058 0.000303 0.001530 99.551401 12.235181 -14.416757 -2.850069 0.000373 -0.000250 97.773372 10.500075 -12.019274 -2.772175 -0.000014 -0.000023 -0.000000 0.000002 0.000001 -9.532579 0.000272 0.000268 97.281264 15.897924 -18.185968 -3.700075 0.000330 0.003986 97.549971 11.615106 -13.135196 -2.950068 0.000336 -0.001809 98.885375 11.201847 -13.065728 -2.946630 0.000014 -0.000156 0.000000 0.000001 -0.000001 -9.103693 -0.042758 -1.864838 96.978844 19.195219 -21.581547 -3.379359 0.000301 -0.000777 99.774235 11.197261 -13.294826 -2.889751 0.000344 0.000680 105.981723 8.436035 -11.237665 -2.638787 -0.000016 0.000946 -0.000001 -0.000002 0.000000 -8.076760 -0.486406 -3.806043 80.680763 23.405084 -19.817729 -3.600031 0.000255 -0.003522 84.172506 12.544634 -10.999849 -2.100030 0.000313 -0.005494 89.856732 7.046641 -6.805982 -2.115785 -0.000053 -0.003680 -0.000004 0.000001 -0.000006 4.570446 11.014691 -2.160851 -0.000018 0.000010 -0.000021 10.592525 -0.524534 -2.232389 67.222858 -66.228683 46.877490 27.841721 -0.000072 -0.000076 243.810323 -70.092883 263.183964 28.328829 -0.000026 0.000023 0.000025 -0.000088 0.000001 2.466162 -1.576182 2.681875 122.900143 155.223822 -163.081476 3.217822 -1.872003 1.916542 -101.172546 42.311130 46.307197 2.655967 -1.528825 1.514604 -164.351208 40.727998 101.401596 2.020888 -1.154088 1.115153 0.000000 0.000006 0.000001 9.109263 -0.517781 2.260103 -117.860351 -12.192191 -20.091196 3.699925 0.000269 -0.000105 -118.608776 -11.403406 -19.111467 2.849947 0.000283 0.000598 61.550892 -169.000901 161.634214 2.774878 -0.000045 -0.000028 0.000001 0.000002 0.000000 9.533374 -0.000002 0.000134 -10.210346 -145.316632 -31.958527 3.700012 0.000133 -0.000382 -114.881705 -178.588027 180.900142 2.950005 0.000025 -0.000156 31.440221 4.705677 -1.324594 2.952868 -0.000014 0.000046 0.000001 0.000003 0.000002 9.104648 -0.042963 -1.865067 144.478513 -37.481206 453.298126 3.149953 0.000144 -0.000149 -309.034477 20.066613 -9.639668 2.949947 0.000050 -0.000096 28.270985 16.871025 -4.277676 2.644334 0.000015 0.000047 -0.000001 -0.000003 0.000003 8.077915 -0.486708 -3.806314 119.205311 -30.665490 411.123621 3.599910 0.000126 0.014563 -130.216190 163.014513 172.187908 2.099960 0.000072 0.007556 34.057137 22.779207 -7.031402 2.125504 -0.000042 0.007498 -0.000002 -0.000000 0.000003 -8.207786 -6.751667 -1.599560 -0.077001 -0.000003 0.000080 -0.000002 -44.370110 0.345938 0.153719 -0.000000 -0.000000 0.000000 -44.423679 -3.043532 -0.076700 0.000000 -0.000002 -0.000006 -8.728667 10.710559 -0.000009 -0.000000 -0.000000 -0.000001 -0.000679 9.278123 0.000000 -0.000000 -0.000000 8.207792 -6.751710 -1.599556 -0.074518 -0.000003 0.000081 -0.000002 -44.370014 0.346960 0.148822 0.000002 0.000000 -0.000001 -44.423664 -3.044403 -0.074314 0.000000 -0.000002 -0.000004 -8.728671 10.710558 0.000007 -0.000000 -0.000000 0.000000 -0.000680 9.278137 -0.000000 0.000000 -0.000001 
0.000006 104.270477 1.554256 0.000010 0.000003 -0.000113 -0.000005 10.181587 0.131522 0.000001 -0.000003 0.000084 -0.000000 9.893967 -1.470711 0.000001 0.000000 -0.000000 -0.000000 9.220802 -1.370642 0.000000 -0.000000 -0.000000 0.000001 16.740433 -2.049030 0.000000 -0.000000 -0.000000 0.000000 9.617859 1.685014 0.000000 0.000000 0.000000 0.000002 22.037384 7.501101 0.000000 -0.000000 0.000000 -4.569968 11.014880 -2.160881 0.000008 0.000001 -0.000038 -10.592871 -0.524780 -2.231882 77.014631 32.974439 -26.502066 -27.841511 0.000010 0.000570 -45.643825 108.698567 60.798997 -28.328838 -0.000007 0.000023 -0.000318 -0.000043 0.000008 -2.464396 -1.573854 2.682323 -40.565470 -154.417286 5.479747 -3.215261 -1.872524 1.924620 149.142604 33.775244 26.792334 -2.654950 -1.527898 1.513064 147.819432 27.378456 -31.014362 -2.018834 -1.152001 1.108064 -0.000003 -0.000003 0.000002 -9.108366 -0.517558 2.260131 101.584447 15.411060 -18.890348 -3.700064 0.000318 0.001519 99.449597 12.499512 -14.701547 -2.850085 0.000363 -0.000264 97.357230 10.562742 -12.003263 -2.772150 -0.000015 -0.000023 -0.000001 -0.000000 0.000001 -9.532579 0.000262 0.000260 97.294631 15.985102 -18.288803 -3.700068 0.000316 0.003984 97.758346 11.503324 -13.055555 -2.950055 0.000343 -0.001799 98.593255 11.053966 -12.827747 -2.946635 0.000014 -0.000159 -0.000001 -0.000001 0.000001 -9.103701 -0.042768 -1.864854 96.483949 19.136793 -21.334040 -3.379342 0.000301 -0.000767 99.863793 10.911041 -12.976691 -2.889756 0.000345 0.000694 105.702628 8.150370 -10.805449 -2.638794 0.000015 0.000942 0.000000 -0.000000 -0.000003 -8.076766 -0.486410 -3.806049 80.702223 23.317953 -19.750324 -3.600046 0.000257 -0.003529 84.329634 12.195526 -10.714574 -2.100007 0.000307 -0.005504 89.524403 6.605969 -6.330969 -2.115784 -0.000055 -0.003680 -0.000002 0.000002 -0.000006 4.570446 11.014691 -2.160851 -0.000018 0.000010 -0.000021 10.592525 -0.524538 -2.232390 67.341779 -65.924706 46.729043 27.841715 -0.000096 -0.000071 243.806908 -69.952742 263.328272 28.328842 -0.000044 0.000018 0.000023 -0.000088 0.000002 2.466141 -1.576164 2.681870 124.861377 153.073938 -163.863437 3.217825 -1.872016 1.916507 -101.288966 45.502211 47.726486 2.655939 -1.528837 1.514608 -172.646842 42.740325 112.835975 2.020887 -1.154065 1.115158 -0.000003 0.000000 0.000001 9.109263 -0.517759 2.260108 -117.836937 -10.390956 -17.143153 3.699940 0.000275 -0.000098 -117.857086 -9.879969 -16.344337 2.849951 0.000289 0.000584 61.763673 -169.977017 163.318197 2.774881 -0.000046 -0.000041 0.000001 -0.000001 -0.000001 9.533392 0.000032 0.000138 -8.766838 -154.998507 -38.183739 3.700004 0.000129 -0.000410 -114.742793 -182.439626 178.436575 2.950009 0.000017 -0.000155 28.194541 4.649418 -1.167710 2.952871 -0.000028 0.000055 0.000001 0.000001 0.000004 9.104671 -0.042882 -1.865086 152.272961 -23.292296 439.739491 3.149939 0.000135 -0.000144 -308.841675 23.837307 -11.538297 2.949964 0.000038 -0.000074 24.322278 16.175286 -3.507893 2.644324 0.000015 0.000054 0.000002 -0.000001 0.000000 8.077896 -0.486606 -3.806304 130.599118 -14.999748 393.206805 3.599904 0.000103 0.014543 -131.818075 158.857223 170.547378 2.099956 0.000053 0.007572 31.096857 23.628758 -6.645134 2.125503 -0.000003 0.007520 -0.000002 0.000005 0.000003 -8.207786 -6.751667 -1.599560 -0.077001 -0.000003 0.000080 -0.000002 -44.370110 0.345938 0.153719 -0.000000 -0.000000 0.000000 -44.423679 -3.043532 -0.076700 0.000000 -0.000002 -0.000006 -8.728667 10.710559 -0.000009 -0.000000 -0.000000 -0.000001 -0.000679 9.278123 0.000000 -0.000000 -0.000000 8.207792 -6.751710 -1.599556 -0.074518 -0.000003 0.000081 -0.000002 -44.370014 0.346960 0.148822 0.000002 0.000000 -0.000001 -44.423664 -3.044403 -0.074314 0.000000 -0.000002 -0.000004 -8.728671 10.710558 0.000007 -0.000000 -0.000000 0.000000 -0.000680 9.278137 -0.000000 0.000000 -0.000001 
0.000006 104.270477 1.554256 0.000010 0.000003 -0.000113 -0.000005 10.181587 0.131522 0.000001 -0.000003 0.000084 -0.000000 9.893967 -1.470711 0.000001 0.000000 -0.000000 -0.000000 9.220802 -1.370642 0.000000 -0.000000 -0.000000 0.000001 16.740433 -2.049030 0.000000 -0.000000 -0.000000 0.000000 9.617859 1.685014 0.000000 0.000000 0.000000 0.000002 22.037384 7.501101 0.000000 -0.000000 0.000000 -4.569968 11.014880 -2.160881 0.000008 0.000001 -0.000038 -10.592869 -0.524775 -2.231890 76.958364 33.774732 -27.132334 -27.841496 0.000011 0.000556 -45.605248 108.587980 60.650099 -28.328814 -0.000006 0.000030 -0.000325 -0.000043 0.000007 -2.464383 -1.573853 2.682334 -40.934253 -154.348588 4.665976 -3.215239 -1.872525 1.924624 149.437381 33.482509 23.882057 -2.654937 -1.527875 1.513051 146.904405 27.515916 -30.997939 -2.018823 -1.152000 1.108065 -0.000001 -0.000003 0.000004 -9.108362 -0.517547 2.260119 101.606058 15.151859 -18.582332 -3.700057 0.000310 0.001522 99.129602 12.099188 -14.151839 -2.850080 0.000364 -0.000267 97.122148 10.209498 -11.554876 -2.772162 0.000001 -0.000019 0.000000 -0.000003 -0.000001 -9.532579 0.000277 0.000255 97.344136 15.415508 -17.659439 -3.700050 0.000310 0.003989 97.597461 11.188363 -12.660624 -2.950053 0.000335 -0.001796 98.099849 10.931374 -12.576665 -2.946636 -0.000012 -0.000161 0.000001 -0.000001 -0.000002 -9.103690 -0.042784 -1.864854 96.318863 18.743072 -20.837056 -3.379332 0.000310 -0.000795 99.609532 10.903072 -12.909480 -2.889765 0.000337 0.000672 105.158460 8.320472 -10.921739 -2.638802 -0.000004 0.000940 -0.000000 -0.000001 0.000000 -8.076757 -0.486423 -3.806036 80.744420 23.335452 -19.779818 -3.600040 0.000268 -0.003528 83.988965 12.241261 -10.692143 -2.100016 0.000307 -0.005498 88.936774 6.650571 -6.310150 -2.115766 -0.000047 -0.003680 -0.000009 0.000002 -0.000001 4.570446 11.014691 -2.160851 -0.000018 0.000010 -0.000021 10.592524 -0.524541 -2.232396 67.569060 -66.395934 47.285864 27.841719 -0.000087 -0.000082 243.593315 -70.287510 262.738417 28.328840 -0.000029 0.000031 0.000021 -0.000089 -0.000000 2.466152 -1.576162 2.681873 124.083487 152.798941 -163.485250 3.217818 -1.872000 1.916524 -100.891497 44.843423 47.172182 2.655962 -1.528827 1.514618 -169.746061 41.491558 108.345187 2.020887 -1.154099 1.115152 -0.000001 0.000001 0.000004 9.109261 -0.517756 2.260101 -118.889824 -11.277914 -18.977626 3.699931 0.000262 -0.000074 -116.743041 -11.313769 -18.290393 2.849964 0.000280 0.000582 63.901959 -169.375127 163.041520 2.774888 -0.000060 -0.000036 0.000001 -0.000001 -0.000000 9.533302 0.000029 0.000148 -5.275638 -145.284612 -16.794908 3.700002 0.000096 -0.000373 -119.637990 -181.794173 178.955259 2.950009 0.000032 -0.000166 32.827409 4.162592 -1.226063 2.952880 -0.000036 0.000063 -0.000003 -0.000003 0.000001 9.104618 -0.042986 -1.865068 146.494293 -41.182339 462.599260 3.149952 0.000109 -0.000153 -311.666176 25.118045 -11.416949 2.949960 0.000053 -0.000117 33.195583 16.198395 -4.857587 2.644325 0.000017 0.000066 -0.000000 0.000001 -0.000000 8.077856 -0.486658 -3.806416 94.610927 -18.680100 380.861348 3.599901 0.000089 0.014550 -135.206655 156.704429 170.353579 2.099953 0.000049 0.007522 37.649143 24.345338 -8.377456 2.125489 -0.000042 0.007520 -0.000003 0.000001 -0.000000 -8.207786 -6.751667 -1.599560 -0.077001 -0.000003 0.000080 -0.000002 -44.370110 0.345938 0.153719 -0.000000 -0.000000 0.000000 -44.423679 -3.043532 -0.076700 0.000000 -0.000002 -0.000006 -8.728667 10.710559 -0.000009 -0.000000 -0.000000 -0.000001 -0.000679 9.278123 0.000000 -0.000000 -0.000000 8.207792 -6.751710 -1.599556 -0.074518 -0.000003 0.000081 -0.000002 -44.370014 0.346960 0.148822 0.000002 0.000000 -0.000001 -44.423664 -3.044403 -0.074314 0.000000 -0.000002 -0.000004 -8.728671 10.710558 0.000007 -0.000000 -0.000000 0.000000 -0.000680 9.278137 -0.000000 0.000000 -0.000001 
